<svg id="SvgjsSvg1001" width="288" height="288" xmlns="http://www.w3.org/2000/svg" version="1.1" xmlns:xlink="http://www.w3.org/1999/xlink" xmlns:svgjs="http://svgjs.com/svgjs"><defs id="SvgjsDefs1002"></defs><g id="SvgjsG1008" transform="matrix(1,0,0,1,0,0)"><svg xmlns="http://www.w3.org/2000/svg" width="288" height="288" enable-background="new 0 0 512 512" viewBox="0 0 512 512"><path d="M480,253C478.3,129.3,376.7,30.4,253,32S30.4,135.3,32,259c1.7,123.7,103.3,222.6,227,221C382.7,478.3,481.7,376.7,480,253   z M256,111.9c17.7,0,32,14.3,32,32s-14.3,32-32,32c-17.7,0-32-14.3-32-32S238.3,111.9,256,111.9z M300,395h-88v-11h22V224h-22v-12   h66v172h22V395z" fill="#ffffff" class="color000 svgShape"></path></svg></g></svg>